<svg xmlns="http://www.w3.org/2000/svg" width="30.529" height="30.53" viewBox="0 0 30.529 30.53"><defs><style>.a{fill:#b8becc;}</style></defs><g transform="translate(0)"><g transform="translate(0 0)"><g transform="translate(0 0)"><circle class="a" cx="3.369" cy="3.369" r="3.369" transform="translate(11.896 11.896)"/><path class="a" d="M55.584,54.867l-.048-8.255A12.284,12.284,0,0,0,46.1,56.187h8.209A4.533,4.533,0,0,1,55.584,54.867Z" transform="translate(-42.845 -43.322)"/><path class="a" d="M253.664,56.421h8.209a12.285,12.285,0,0,0-9.357-9.557l-.1,8.256A4.532,4.532,0,0,1,253.664,56.421Z" transform="translate(-234.598 -43.556)"/><path class="a" d="M197.233,50.495a4.478,4.478,0,0,1,1.429.234l.1-7.889a12.272,12.272,0,0,0-2.972-.009l.046,7.888A4.48,4.48,0,0,1,197.233,50.495Z" transform="translate(-181.969 -39.728)"/><path class="a" d="M285.253,198.264h-7.868a4.479,4.479,0,0,1,0,2.541h7.868A12.328,12.328,0,0,0,285.253,198.264Z" transform="translate(-257.806 -184.27)"/><path class="a" d="M26.088,4.533l-.046-.046A15.242,15.242,0,0,0,4.441,26l.046.046a15.242,15.242,0,1,0,21.6-21.51ZM15.264,28.642A13.377,13.377,0,1,1,28.641,15.265,13.392,13.392,0,0,1,15.264,28.642Z" transform="translate(0 0)"/><path class="a" d="M58.11,252.362a4.5,4.5,0,0,1-3.8-2.1H46.1a12.248,12.248,0,0,0,24.022,0H61.911A4.5,4.5,0,0,1,58.11,252.362Z" transform="translate(-42.845 -232.599)"/><path class="a" d="M50.495,199.535a4.481,4.481,0,0,1,.184-1.271H42.811a12.318,12.318,0,0,0,0,2.541h7.868A4.48,4.48,0,0,1,50.495,199.535Z" transform="translate(-39.728 -184.27)"/></g></g></g></svg>