<svg xmlns="http://www.w3.org/2000/svg" width="30.437" height="22.969" viewBox="0 0 30.437 22.969"><defs><style>.a{fill:#b8becc;}</style></defs><g transform="translate(0 -53)"><g transform="translate(0 53)"><g transform="translate(0 0)"><path class="a" d="M0,325.423v2.11A1.677,1.677,0,0,0,1.679,329.2h1.86a1.673,1.673,0,0,0,1.674-1.665v-1.576H1.679A2.859,2.859,0,0,1,0,325.423Z" transform="translate(0 -306.229)"/><path class="a" d="M260.89,112.4a3.578,3.578,0,0,0-3.52,3h7.04A3.578,3.578,0,0,0,260.89,112.4Z" transform="translate(-239.237 -108.215)"/><rect class="a" width="4.327" height="2.885" transform="translate(2.959 12.205)"/><path class="a" d="M29.559,171.8l-.03-.028L28.813,171H2.012l-1,.937c-.006.006-.015.019-.022.024A2.784,2.784,0,0,0,0,174.084v5.555a1.663,1.663,0,0,0,1.677,1.648H28.758a1.663,1.663,0,0,0,1.679-1.646v-5.812A2.809,2.809,0,0,0,29.559,171.8ZM8.6,178.327a.564.564,0,0,1-.564.564H2.748a.564.564,0,0,1-.564-.564v-3.664a.564.564,0,0,1,.564-.564H8.032a.564.564,0,0,1,.564.564Zm10.027-.141H11.816a.564.564,0,0,1,0-1.127h6.807a.564.564,0,1,1,0,1.127Zm0-2.184H11.816a.564.564,0,1,1,0-1.127h6.807a.564.564,0,1,1,0,1.127Zm9.631,2.325a.564.564,0,0,1-.564.564H22.405a.564.564,0,0,1-.564-.564v-3.664a.564.564,0,0,1,.564-.564h5.284a.564.564,0,0,1,.564.564Z" transform="translate(0 -162.686)"/><path class="a" d="M358,325.957v1.576a1.673,1.673,0,0,0,1.675,1.665h1.86a1.677,1.677,0,0,0,1.679-1.665v-2.11a2.859,2.859,0,0,1-1.679.534Z" transform="translate(-332.777 -306.229)"/><rect class="a" width="4.327" height="2.885" transform="translate(23.151 12.205)"/><path class="a" d="M55.967,56.058a4.7,4.7,0,0,1,4.657,4.129H62.6l-2.266-6.107A1.666,1.666,0,0,0,58.766,53H40.744a1.667,1.667,0,0,0-1.564,1.079l-2.266,6.107h14.4A4.7,4.7,0,0,1,55.967,56.058Z" transform="translate(-34.313 -53)"/></g></g></g></svg>