<svg xmlns="http://www.w3.org/2000/svg" width="31.874" height="27.866" viewBox="0 0 31.874 27.866"><defs><style>.a{fill:#b8becc;}</style></defs><g transform="translate(0 -29.755)"><g transform="translate(0 29.755)"><g transform="translate(0 0)"><rect class="a" width="10.843" height="6.802" transform="translate(5.7 3.689)"/><path class="a" d="M291.347,47.421c0,.007,0,.014,0,.021v1.863a3.435,3.435,0,0,0,6.869,0V38.653a4.253,4.253,0,0,0-1.127-2.894l-5.268-6-.811.711,4.252,4.847a2.573,2.573,0,0,0,.18,5.14,2.6,2.6,0,0,0,1.7-.638v9.49a2.357,2.357,0,1,1-4.714,0V47.442a3.008,3.008,0,0,0-2.995-3.021h-1.787V45.5h1.768A1.929,1.929,0,0,1,291.347,47.421Zm5.589-9.542a1.5,1.5,0,1,1-1.5-1.5,1.5,1.5,0,0,1,1.5,1.5Z" transform="translate(-268.271 -29.755)"/><path class="a" d="M31.335,61.931h-12.5V37.114a1.574,1.574,0,0,0-1.56-1.583H4.758a1.565,1.565,0,0,0-1.549,1.583V61.931H.539a.539.539,0,1,0,0,1.078h30.8a.539.539,0,1,0,0-1.078ZM17.621,46.172a.539.539,0,0,1-.539.539H5.162a.539.539,0,0,1-.539-.539V38.292a.539.539,0,0,1,.539-.539h11.92a.539.539,0,0,1,.539.539Z" transform="translate(0 -35.142)"/></g></g></g></svg>