<svg xmlns="http://www.w3.org/2000/svg" width="27.855" height="27.866" viewBox="0 0 27.855 27.866"><defs><style>.a{fill:#b8becc;}</style></defs><g transform="translate(-0.082)"><g transform="translate(0.082)"><g transform="translate(0)"><path class="a" d="M70.738,289.9a13.036,13.036,0,0,0-9.915,4.564,13.914,13.914,0,0,0,19.677.154l.154-.154A13.017,13.017,0,0,0,70.738,289.9Z" transform="translate(-56.811 -270.75)"/><path class="a" d="M25.025,13.928a.528.528,0,0,1,.528-.528h2.384a13.886,13.886,0,0,0-3.71-8.942L22.56,6.124a.528.528,0,1,1-.747-.747L23.48,3.71A13.886,13.886,0,0,0,14.538,0V2.384a.528.528,0,0,1-1.057,0V0A13.886,13.886,0,0,0,4.54,3.71L6.206,5.377a.528.528,0,1,1-.743.752l0,0L3.792,4.458A13.886,13.886,0,0,0,.082,13.4H2.466a.528.528,0,1,1,0,1.057H.082a13.875,13.875,0,0,0,3.294,8.473,14.109,14.109,0,0,1,21.268,0,13.875,13.875,0,0,0,3.293-8.472H25.554A.528.528,0,0,1,25.025,13.928Zm-8.936,1.714a2.145,2.145,0,1,1-2.608-2.608V5.727a.528.528,0,0,1,1.057,0v7.307A2.145,2.145,0,0,1,16.089,15.641Z" transform="translate(-0.082)"/><circle class="a" cx="1.088" cy="1.088" r="1.088" transform="translate(12.839 14.025)"/></g></g></g></svg>